<mxfile host="app.diagrams.net" agent="Mozilla/5.0 (Macintosh; Intel Mac OS X 10_15_7) AppleWebKit/605.1.15 (KHTML, like Gecko) Version/17.5 Safari/605.1.15" version="24.7.5">
  <diagram id="C5RBs43oDa-KdzZeNtuy" name="Page-1">
    <mxGraphModel dx="838" dy="772" grid="1" gridSize="10" guides="1" tooltips="1" connect="1" arrows="1" fold="1" page="1" pageScale="1" pageWidth="827" pageHeight="1169" math="0" shadow="0">
      <root>
        <mxCell id="WIyWlLk6GJQsqaUBKTNV-0" />
        <mxCell id="WIyWlLk6GJQsqaUBKTNV-1" parent="WIyWlLk6GJQsqaUBKTNV-0" />
        <mxCell id="ozGGzaoArKVUIe1FTtcG-4" value="" style="edgeStyle=orthogonalEdgeStyle;rounded=0;orthogonalLoop=1;jettySize=auto;html=1;" edge="1" parent="WIyWlLk6GJQsqaUBKTNV-1" source="ozGGzaoArKVUIe1FTtcG-0" target="ozGGzaoArKVUIe1FTtcG-2">
          <mxGeometry relative="1" as="geometry" />
        </mxCell>
        <mxCell id="ozGGzaoArKVUIe1FTtcG-0" value="START" style="ellipse;whiteSpace=wrap;html=1;" vertex="1" parent="WIyWlLk6GJQsqaUBKTNV-1">
          <mxGeometry x="340" y="10" width="120" height="80" as="geometry" />
        </mxCell>
        <mxCell id="ozGGzaoArKVUIe1FTtcG-1" style="edgeStyle=orthogonalEdgeStyle;rounded=0;orthogonalLoop=1;jettySize=auto;html=1;exitX=0.5;exitY=1;exitDx=0;exitDy=0;" edge="1" parent="WIyWlLk6GJQsqaUBKTNV-1" source="ozGGzaoArKVUIe1FTtcG-0" target="ozGGzaoArKVUIe1FTtcG-0">
          <mxGeometry relative="1" as="geometry" />
        </mxCell>
        <mxCell id="ozGGzaoArKVUIe1FTtcG-8" style="edgeStyle=orthogonalEdgeStyle;rounded=0;orthogonalLoop=1;jettySize=auto;html=1;exitX=0.5;exitY=1;exitDx=0;exitDy=0;entryX=0.5;entryY=0;entryDx=0;entryDy=0;" edge="1" parent="WIyWlLk6GJQsqaUBKTNV-1" source="ozGGzaoArKVUIe1FTtcG-2" target="ozGGzaoArKVUIe1FTtcG-6">
          <mxGeometry relative="1" as="geometry" />
        </mxCell>
        <mxCell id="ozGGzaoArKVUIe1FTtcG-18" style="edgeStyle=orthogonalEdgeStyle;rounded=0;orthogonalLoop=1;jettySize=auto;html=1;exitX=0;exitY=0.5;exitDx=0;exitDy=0;entryX=1;entryY=0.5;entryDx=0;entryDy=0;" edge="1" parent="WIyWlLk6GJQsqaUBKTNV-1" source="ozGGzaoArKVUIe1FTtcG-2" target="ozGGzaoArKVUIe1FTtcG-5">
          <mxGeometry relative="1" as="geometry" />
        </mxCell>
        <mxCell id="ozGGzaoArKVUIe1FTtcG-2" value="format == NULL ?" style="rhombus;whiteSpace=wrap;html=1;" vertex="1" parent="WIyWlLk6GJQsqaUBKTNV-1">
          <mxGeometry x="340" y="120" width="120" height="90" as="geometry" />
        </mxCell>
        <mxCell id="ozGGzaoArKVUIe1FTtcG-5" value="return (-1)" style="rounded=0;whiteSpace=wrap;html=1;" vertex="1" parent="WIyWlLk6GJQsqaUBKTNV-1">
          <mxGeometry x="180" y="135" width="120" height="60" as="geometry" />
        </mxCell>
        <mxCell id="ozGGzaoArKVUIe1FTtcG-6" value="va_start(args, format)" style="rounded=0;whiteSpace=wrap;html=1;" vertex="1" parent="WIyWlLk6GJQsqaUBKTNV-1">
          <mxGeometry x="330" y="250" width="140" height="60" as="geometry" />
        </mxCell>
        <mxCell id="ozGGzaoArKVUIe1FTtcG-19" style="edgeStyle=orthogonalEdgeStyle;rounded=0;orthogonalLoop=1;jettySize=auto;html=1;exitX=0.5;exitY=1;exitDx=0;exitDy=0;entryX=0.5;entryY=0;entryDx=0;entryDy=0;" edge="1" parent="WIyWlLk6GJQsqaUBKTNV-1" source="ozGGzaoArKVUIe1FTtcG-7" target="ozGGzaoArKVUIe1FTtcG-10">
          <mxGeometry relative="1" as="geometry" />
        </mxCell>
        <mxCell id="ozGGzaoArKVUIe1FTtcG-7" value="int i = 0, count = 0&amp;nbsp;" style="rounded=0;whiteSpace=wrap;html=1;" vertex="1" parent="WIyWlLk6GJQsqaUBKTNV-1">
          <mxGeometry x="330" y="350" width="140" height="60" as="geometry" />
        </mxCell>
        <mxCell id="ozGGzaoArKVUIe1FTtcG-9" value="" style="endArrow=classic;html=1;rounded=0;exitX=0.5;exitY=1;exitDx=0;exitDy=0;entryX=0.5;entryY=0;entryDx=0;entryDy=0;" edge="1" parent="WIyWlLk6GJQsqaUBKTNV-1" source="ozGGzaoArKVUIe1FTtcG-6" target="ozGGzaoArKVUIe1FTtcG-7">
          <mxGeometry width="50" height="50" relative="1" as="geometry">
            <mxPoint x="390" y="420" as="sourcePoint" />
            <mxPoint x="440" y="370" as="targetPoint" />
          </mxGeometry>
        </mxCell>
        <mxCell id="ozGGzaoArKVUIe1FTtcG-16" style="edgeStyle=orthogonalEdgeStyle;rounded=0;orthogonalLoop=1;jettySize=auto;html=1;exitX=0.5;exitY=1;exitDx=0;exitDy=0;entryX=0.5;entryY=0;entryDx=0;entryDy=0;" edge="1" parent="WIyWlLk6GJQsqaUBKTNV-1" source="ozGGzaoArKVUIe1FTtcG-10" target="ozGGzaoArKVUIe1FTtcG-11">
          <mxGeometry relative="1" as="geometry" />
        </mxCell>
        <mxCell id="ozGGzaoArKVUIe1FTtcG-43" style="edgeStyle=orthogonalEdgeStyle;rounded=0;orthogonalLoop=1;jettySize=auto;html=1;exitX=0;exitY=0.5;exitDx=0;exitDy=0;entryX=1;entryY=0.5;entryDx=0;entryDy=0;" edge="1" parent="WIyWlLk6GJQsqaUBKTNV-1" source="ozGGzaoArKVUIe1FTtcG-10" target="ozGGzaoArKVUIe1FTtcG-42">
          <mxGeometry relative="1" as="geometry" />
        </mxCell>
        <mxCell id="ozGGzaoArKVUIe1FTtcG-10" value="format[i] != &#39;\0&#39; &amp;amp;&amp;amp; format != NULL" style="rhombus;whiteSpace=wrap;html=1;" vertex="1" parent="WIyWlLk6GJQsqaUBKTNV-1">
          <mxGeometry x="270" y="450" width="260" height="80" as="geometry" />
        </mxCell>
        <mxCell id="ozGGzaoArKVUIe1FTtcG-30" style="edgeStyle=orthogonalEdgeStyle;rounded=0;orthogonalLoop=1;jettySize=auto;html=1;exitX=1;exitY=0.5;exitDx=0;exitDy=0;entryX=0;entryY=0.5;entryDx=0;entryDy=0;" edge="1" parent="WIyWlLk6GJQsqaUBKTNV-1" source="ozGGzaoArKVUIe1FTtcG-11" target="ozGGzaoArKVUIe1FTtcG-12">
          <mxGeometry relative="1" as="geometry" />
        </mxCell>
        <mxCell id="ozGGzaoArKVUIe1FTtcG-48" style="edgeStyle=orthogonalEdgeStyle;rounded=0;orthogonalLoop=1;jettySize=auto;html=1;exitX=0.5;exitY=1;exitDx=0;exitDy=0;entryX=0.5;entryY=0;entryDx=0;entryDy=0;" edge="1" parent="WIyWlLk6GJQsqaUBKTNV-1" source="ozGGzaoArKVUIe1FTtcG-11" target="ozGGzaoArKVUIe1FTtcG-32">
          <mxGeometry relative="1" as="geometry" />
        </mxCell>
        <mxCell id="ozGGzaoArKVUIe1FTtcG-11" value="format[i] == &#39;%&#39;" style="rhombus;whiteSpace=wrap;html=1;" vertex="1" parent="WIyWlLk6GJQsqaUBKTNV-1">
          <mxGeometry x="320" y="560" width="160" height="80" as="geometry" />
        </mxCell>
        <mxCell id="ozGGzaoArKVUIe1FTtcG-28" style="edgeStyle=orthogonalEdgeStyle;rounded=0;orthogonalLoop=1;jettySize=auto;html=1;exitX=0.5;exitY=1;exitDx=0;exitDy=0;entryX=0.5;entryY=0;entryDx=0;entryDy=0;" edge="1" parent="WIyWlLk6GJQsqaUBKTNV-1" source="ozGGzaoArKVUIe1FTtcG-12" target="ozGGzaoArKVUIe1FTtcG-27">
          <mxGeometry relative="1" as="geometry" />
        </mxCell>
        <mxCell id="ozGGzaoArKVUIe1FTtcG-12" value="_putchar(format[i])" style="rounded=0;whiteSpace=wrap;html=1;" vertex="1" parent="WIyWlLk6GJQsqaUBKTNV-1">
          <mxGeometry x="520" y="570" width="120" height="60" as="geometry" />
        </mxCell>
        <mxCell id="ozGGzaoArKVUIe1FTtcG-21" style="edgeStyle=orthogonalEdgeStyle;rounded=0;orthogonalLoop=1;jettySize=auto;html=1;exitX=0.5;exitY=1;exitDx=0;exitDy=0;" edge="1" parent="WIyWlLk6GJQsqaUBKTNV-1" source="ozGGzaoArKVUIe1FTtcG-13" target="ozGGzaoArKVUIe1FTtcG-14">
          <mxGeometry relative="1" as="geometry" />
        </mxCell>
        <mxCell id="ozGGzaoArKVUIe1FTtcG-40" style="edgeStyle=orthogonalEdgeStyle;rounded=0;orthogonalLoop=1;jettySize=auto;html=1;exitX=1;exitY=0.5;exitDx=0;exitDy=0;entryX=0;entryY=0.5;entryDx=0;entryDy=0;" edge="1" parent="WIyWlLk6GJQsqaUBKTNV-1" source="ozGGzaoArKVUIe1FTtcG-13" target="ozGGzaoArKVUIe1FTtcG-39">
          <mxGeometry relative="1" as="geometry" />
        </mxCell>
        <mxCell id="ozGGzaoArKVUIe1FTtcG-13" value="format[i] == &#39;\0&#39;" style="rhombus;whiteSpace=wrap;html=1;" vertex="1" parent="WIyWlLk6GJQsqaUBKTNV-1">
          <mxGeometry x="335" y="750" width="130" height="80" as="geometry" />
        </mxCell>
        <mxCell id="ozGGzaoArKVUIe1FTtcG-22" style="edgeStyle=orthogonalEdgeStyle;rounded=0;orthogonalLoop=1;jettySize=auto;html=1;exitX=0.5;exitY=1;exitDx=0;exitDy=0;entryX=0.5;entryY=0;entryDx=0;entryDy=0;" edge="1" parent="WIyWlLk6GJQsqaUBKTNV-1" source="ozGGzaoArKVUIe1FTtcG-14" target="ozGGzaoArKVUIe1FTtcG-15">
          <mxGeometry relative="1" as="geometry" />
        </mxCell>
        <mxCell id="ozGGzaoArKVUIe1FTtcG-14" value="f = get_format(format[i])" style="rounded=0;whiteSpace=wrap;html=1;" vertex="1" parent="WIyWlLk6GJQsqaUBKTNV-1">
          <mxGeometry x="325" y="860" width="150" height="60" as="geometry" />
        </mxCell>
        <mxCell id="ozGGzaoArKVUIe1FTtcG-36" style="edgeStyle=orthogonalEdgeStyle;rounded=0;orthogonalLoop=1;jettySize=auto;html=1;exitX=0.5;exitY=1;exitDx=0;exitDy=0;entryX=0.5;entryY=0;entryDx=0;entryDy=0;" edge="1" parent="WIyWlLk6GJQsqaUBKTNV-1" source="ozGGzaoArKVUIe1FTtcG-15" target="ozGGzaoArKVUIe1FTtcG-35">
          <mxGeometry relative="1" as="geometry" />
        </mxCell>
        <mxCell id="ozGGzaoArKVUIe1FTtcG-38" style="edgeStyle=orthogonalEdgeStyle;rounded=0;orthogonalLoop=1;jettySize=auto;html=1;exitX=1;exitY=0.5;exitDx=0;exitDy=0;entryX=0;entryY=0.5;entryDx=0;entryDy=0;" edge="1" parent="WIyWlLk6GJQsqaUBKTNV-1" source="ozGGzaoArKVUIe1FTtcG-15" target="ozGGzaoArKVUIe1FTtcG-37">
          <mxGeometry relative="1" as="geometry" />
        </mxCell>
        <mxCell id="ozGGzaoArKVUIe1FTtcG-15" value="f != NULL" style="rhombus;whiteSpace=wrap;html=1;" vertex="1" parent="WIyWlLk6GJQsqaUBKTNV-1">
          <mxGeometry x="350" y="950" width="100" height="80" as="geometry" />
        </mxCell>
        <mxCell id="ozGGzaoArKVUIe1FTtcG-24" value="Yes" style="text;html=1;align=center;verticalAlign=middle;resizable=0;points=[];autosize=1;strokeColor=none;fillColor=none;" vertex="1" parent="WIyWlLk6GJQsqaUBKTNV-1">
          <mxGeometry x="300" y="138" width="40" height="30" as="geometry" />
        </mxCell>
        <mxCell id="ozGGzaoArKVUIe1FTtcG-25" value="No" style="text;html=1;align=center;verticalAlign=middle;whiteSpace=wrap;rounded=0;" vertex="1" parent="WIyWlLk6GJQsqaUBKTNV-1">
          <mxGeometry x="384" y="210" width="60" height="30" as="geometry" />
        </mxCell>
        <mxCell id="ozGGzaoArKVUIe1FTtcG-31" style="edgeStyle=orthogonalEdgeStyle;rounded=0;orthogonalLoop=1;jettySize=auto;html=1;exitX=1;exitY=0.5;exitDx=0;exitDy=0;entryX=1;entryY=0.5;entryDx=0;entryDy=0;" edge="1" parent="WIyWlLk6GJQsqaUBKTNV-1" source="ozGGzaoArKVUIe1FTtcG-27" target="ozGGzaoArKVUIe1FTtcG-7">
          <mxGeometry relative="1" as="geometry" />
        </mxCell>
        <mxCell id="ozGGzaoArKVUIe1FTtcG-27" value="count++" style="rounded=0;whiteSpace=wrap;html=1;" vertex="1" parent="WIyWlLk6GJQsqaUBKTNV-1">
          <mxGeometry x="520" y="660" width="120" height="60" as="geometry" />
        </mxCell>
        <mxCell id="ozGGzaoArKVUIe1FTtcG-33" style="edgeStyle=orthogonalEdgeStyle;rounded=0;orthogonalLoop=1;jettySize=auto;html=1;exitX=0.5;exitY=1;exitDx=0;exitDy=0;entryX=0.5;entryY=0;entryDx=0;entryDy=0;" edge="1" parent="WIyWlLk6GJQsqaUBKTNV-1" source="ozGGzaoArKVUIe1FTtcG-32" target="ozGGzaoArKVUIe1FTtcG-13">
          <mxGeometry relative="1" as="geometry" />
        </mxCell>
        <mxCell id="ozGGzaoArKVUIe1FTtcG-32" value="i++" style="rounded=0;whiteSpace=wrap;html=1;" vertex="1" parent="WIyWlLk6GJQsqaUBKTNV-1">
          <mxGeometry x="340" y="670" width="120" height="60" as="geometry" />
        </mxCell>
        <mxCell id="ozGGzaoArKVUIe1FTtcG-35" value="count = count + f(args)" style="rounded=0;whiteSpace=wrap;html=1;" vertex="1" parent="WIyWlLk6GJQsqaUBKTNV-1">
          <mxGeometry x="330" y="1050" width="140" height="60" as="geometry" />
        </mxCell>
        <mxCell id="ozGGzaoArKVUIe1FTtcG-41" style="edgeStyle=orthogonalEdgeStyle;rounded=0;orthogonalLoop=1;jettySize=auto;html=1;exitX=1;exitY=0.5;exitDx=0;exitDy=0;entryX=1;entryY=0.5;entryDx=0;entryDy=0;" edge="1" parent="WIyWlLk6GJQsqaUBKTNV-1" source="ozGGzaoArKVUIe1FTtcG-37" target="ozGGzaoArKVUIe1FTtcG-7">
          <mxGeometry relative="1" as="geometry">
            <mxPoint x="660" y="690" as="targetPoint" />
          </mxGeometry>
        </mxCell>
        <mxCell id="ozGGzaoArKVUIe1FTtcG-37" value="count = count + 2" style="rounded=0;whiteSpace=wrap;html=1;" vertex="1" parent="WIyWlLk6GJQsqaUBKTNV-1">
          <mxGeometry x="520" y="960" width="120" height="60" as="geometry" />
        </mxCell>
        <mxCell id="ozGGzaoArKVUIe1FTtcG-39" value="Return (-1)" style="rounded=0;whiteSpace=wrap;html=1;" vertex="1" parent="WIyWlLk6GJQsqaUBKTNV-1">
          <mxGeometry x="520" y="760" width="120" height="60" as="geometry" />
        </mxCell>
        <mxCell id="ozGGzaoArKVUIe1FTtcG-45" style="edgeStyle=orthogonalEdgeStyle;rounded=0;orthogonalLoop=1;jettySize=auto;html=1;exitX=0.5;exitY=1;exitDx=0;exitDy=0;entryX=0.5;entryY=0;entryDx=0;entryDy=0;" edge="1" parent="WIyWlLk6GJQsqaUBKTNV-1" source="ozGGzaoArKVUIe1FTtcG-42" target="ozGGzaoArKVUIe1FTtcG-44">
          <mxGeometry relative="1" as="geometry" />
        </mxCell>
        <mxCell id="ozGGzaoArKVUIe1FTtcG-42" value="va_end(args)" style="rounded=0;whiteSpace=wrap;html=1;" vertex="1" parent="WIyWlLk6GJQsqaUBKTNV-1">
          <mxGeometry x="120" y="460" width="120" height="60" as="geometry" />
        </mxCell>
        <mxCell id="ozGGzaoArKVUIe1FTtcG-44" value="return (count)" style="rounded=0;whiteSpace=wrap;html=1;" vertex="1" parent="WIyWlLk6GJQsqaUBKTNV-1">
          <mxGeometry x="120" y="570" width="120" height="60" as="geometry" />
        </mxCell>
        <mxCell id="ozGGzaoArKVUIe1FTtcG-46" value="Yes" style="text;html=1;align=center;verticalAlign=middle;resizable=0;points=[];autosize=1;strokeColor=none;fillColor=none;" vertex="1" parent="WIyWlLk6GJQsqaUBKTNV-1">
          <mxGeometry x="394" y="530" width="40" height="30" as="geometry" />
        </mxCell>
        <mxCell id="ozGGzaoArKVUIe1FTtcG-47" value="No" style="text;html=1;align=center;verticalAlign=middle;whiteSpace=wrap;rounded=0;" vertex="1" parent="WIyWlLk6GJQsqaUBKTNV-1">
          <mxGeometry x="230" y="460" width="60" height="30" as="geometry" />
        </mxCell>
        <mxCell id="ozGGzaoArKVUIe1FTtcG-49" value="Yes" style="text;html=1;align=center;verticalAlign=middle;resizable=0;points=[];autosize=1;strokeColor=none;fillColor=none;" vertex="1" parent="WIyWlLk6GJQsqaUBKTNV-1">
          <mxGeometry x="394" y="640" width="40" height="30" as="geometry" />
        </mxCell>
        <mxCell id="ozGGzaoArKVUIe1FTtcG-50" value="Yes" style="text;html=1;align=center;verticalAlign=middle;resizable=0;points=[];autosize=1;strokeColor=none;fillColor=none;" vertex="1" parent="WIyWlLk6GJQsqaUBKTNV-1">
          <mxGeometry x="404" y="830" width="40" height="30" as="geometry" />
        </mxCell>
        <mxCell id="ozGGzaoArKVUIe1FTtcG-51" value="No" style="text;html=1;align=center;verticalAlign=middle;whiteSpace=wrap;rounded=0;" vertex="1" parent="WIyWlLk6GJQsqaUBKTNV-1">
          <mxGeometry x="465" y="570" width="60" height="30" as="geometry" />
        </mxCell>
      </root>
    </mxGraphModel>
  </diagram>
</mxfile>
